<svg width="36" height="24" viewBox="0 0 36 24" fill="none" xmlns="http://www.w3.org/2000/svg">
<circle cx="6.5" cy="9.5" r="2.5" fill="#EEF8F7" stroke="#004D40" stroke-width="2"/>
<path d="M1.04525 23H1.03896C1.17484 21.2637 1.66367 19.6161 2.46734 18.362C3.40629 16.8967 4.74166 16 6.5 16C8.25834 16 9.59371 16.8967 10.5327 18.362C11.3363 19.6161 11.8252 21.2637 11.961 23H11.9547H11.9441H11.9333H11.9225H11.9117H11.9008H11.8899H11.8789H11.8679H11.8568H11.8457H11.8346H11.8233H11.8121H11.8008H11.7894H11.778H11.7666H11.7551H11.7436H11.732H11.7204H11.7087H11.697H11.6852H11.6734H11.6615H11.6496H11.6377H11.6257H11.6136H11.6016H11.5894H11.5773H11.565H11.5528H11.5405H11.5281H11.5157H11.5033H11.4908H11.4783H11.4657H11.4531H11.4404H11.4277H11.415H11.4022H11.3893H11.3765H11.3635H11.3506H11.3376H11.3245H11.3114H11.2983H11.2851H11.2719H11.2586H11.2453H11.232H11.2186H11.2051H11.1917H11.1782H11.1646H11.151H11.1374H11.1237H11.11H11.0962H11.0824H11.0685H11.0547H11.0407H11.0268H11.0128H10.9987H10.9846H10.9705H10.9563H10.9421H10.9279H10.9136H10.8992H10.8849H10.8705H10.856H10.8415H10.827H10.8124H10.7978H10.7832H10.7685H10.7538H10.739H10.7242H10.7094H10.6945H10.6796H10.6646H10.6496H10.6346H10.6195H10.6044H10.5893H10.5741H10.5589H10.5436H10.5283H10.513H10.4976H10.4822H10.4668H10.4513H10.4358H10.4203H10.4047H10.3891H10.3734H10.3577H10.342H10.3262H10.3104H10.2946H10.2787H10.2628H10.2468H10.2308H10.2148H10.1988H10.1827H10.1666H10.1504H10.1342H10.118H10.1017H10.0854H10.0691H10.0527H10.0363H10.0199H10.0034H9.98693H9.9704H9.95383H9.93723H9.92059H9.90392H9.88722H9.87049H9.85372H9.83692H9.82008H9.80321H9.78631H9.76938H9.75242H9.73542H9.71839H9.70133H9.68423H9.66711H9.64995H9.63276H9.61554H9.59828H9.581H9.56368H9.54634H9.52896H9.51155H9.49411H9.47664H9.45913H9.4416H9.42404H9.40644H9.38882H9.37116H9.35348H9.33576H9.31802H9.30024H9.28244H9.2646H9.24674H9.22884H9.21092H9.19297H9.17499H9.15698H9.13894H9.12087H9.10277H9.08464H9.06649H9.0483H9.03009H9.01185H8.99358H8.97529H8.95696H8.93861H8.92023H8.90182H8.88338H8.86492H8.84643H8.82791H8.80937H8.7908H8.7722H8.75357H8.73492H8.71624H8.69753H8.6788H8.66004H8.64125H8.62244H8.6036H8.58474H8.56585H8.54693H8.52799H8.50902H8.49003H8.47101H8.45197H8.4329H8.41381H8.39469H8.37554H8.35637H8.33718H8.31796H8.29872H8.27945H8.26016H8.24085H8.22151H8.20214H8.18276H8.16334H8.14391H8.12445H8.10497H8.08546H8.06593H8.04638H8.0268H8.00721H7.98758H7.96794H7.94827H7.92858H7.90887H7.88914H7.86938H7.8496H7.8298H7.80998H7.79013H7.77026H7.75037H7.73046H7.71053H7.69058H7.6706H7.65061H7.63059H7.61055H7.59049H7.57041H7.55031H7.53019H7.51005H7.48988H7.4697H7.4495H7.42928H7.40903H7.38877H7.36849H7.34818H7.32786H7.30752H7.28716H7.26678H7.24638H7.22596H7.20552H7.18506H7.16459H7.14409H7.12358H7.10305H7.0825H7.06193H7.04134H7.02073H7.00011H6.97947H6.95881H6.93813H6.91744H6.89673H6.876H6.85525H6.83449H6.81371H6.79291H6.77209H6.75126H6.73041H6.70955H6.68866H6.66777H6.64685H6.62592H6.60497H6.58401H6.56303H6.54204H6.52103H6.5H6.47897H6.45796H6.43697H6.41599H6.39502H6.37408H6.35315H6.33223H6.31133H6.29045H6.26958H6.24874H6.2279H6.20709H6.18629H6.16551H6.14475H6.124H6.10327H6.08256H6.06186H6.04119H6.02053H5.99989H5.97926H5.95866H5.93807H5.9175H5.89695H5.87642H5.85591H5.83541H5.81494H5.79448H5.77404H5.75362H5.73322H5.71284H5.69248H5.67214H5.65181H5.63151H5.61123H5.59097H5.57072H5.5505H5.5303H5.51011H5.48995H5.46981H5.44969H5.42959H5.40951H5.38945H5.36941H5.34939H5.32939H5.30942H5.28947H5.26953H5.24962H5.22973H5.20987H5.19002H5.1702H5.1504H5.13062H5.11086H5.09113H5.07141H5.05172H5.03206H5.01241H4.99279H4.97319H4.95362H4.93406H4.91454H4.89503H4.87555H4.85609H4.83665H4.81724H4.79785H4.77849H4.75915H4.73984H4.72054H4.70128H4.68203H4.66282H4.64362H4.62445H4.60531H4.58619H4.5671H4.54803H4.52899H4.50997H4.49097H4.47201H4.45307H4.43415H4.41526H4.3964H4.37756H4.35875H4.33996H4.3212H4.30247H4.28376H4.26508H4.24643H4.2278H4.2092H4.19063H4.17208H4.15357H4.13508H4.11661H4.09818H4.07977H4.06139H4.04304H4.02471H4.00641H3.98815H3.96991H3.95169H3.93351H3.91535H3.89723H3.87913H3.86106H3.84302H3.82501H3.80703H3.78908H3.77115H3.75326H3.7354H3.71756H3.69976H3.68198H3.66423H3.64652H3.62883H3.61118H3.59355H3.57596H3.5584H3.54086H3.52336H3.50589H3.48845H3.47104H3.45366H3.43631H3.419H3.40171H3.38446H3.36724H3.35005H3.33289H3.31576H3.29867H3.28161H3.26458H3.24758H3.23062H3.21368H3.19678H3.17992H3.16308H3.14628H3.12951H3.11278H3.09608H3.07941H3.06277H3.04617H3.0296H3.01307H2.99657H2.9801H2.96367H2.94727H2.9309H2.91457H2.89828H2.88201H2.86579H2.8496H2.83344H2.81732H2.80123H2.78518H2.76916H2.75318H2.73723H2.72132H2.70544H2.6896H2.6738H2.65803H2.6423H2.62661H2.61095H2.59532H2.57974H2.56418H2.54867H2.53319H2.51775H2.50235H2.48698H2.47165H2.45636H2.44111H2.42589H2.41071H2.39557H2.38046H2.3654H2.35037H2.33538H2.32042H2.30551H2.29063H2.27579H2.26099H2.24623H2.23151H2.21683H2.20218H2.18758H2.17301H2.15848H2.14399H2.12955H2.11514H2.10077H2.08644H2.07215H2.0579H2.04369H2.02952H2.01539H2.0013H1.98725H1.97324H1.95927H1.94534H1.93146H1.91761H1.90381H1.89004H1.87632H1.86264H1.849H1.8354H1.82184H1.80833H1.79485H1.78142H1.76803H1.75468H1.74138H1.72812H1.7149H1.70172H1.68858H1.67549H1.66244H1.64943H1.63647H1.62355H1.61067H1.59783H1.58504H1.57229H1.55959H1.54693H1.53431H1.52174H1.50921H1.49672H1.48428H1.47189H1.45953H1.44723H1.43496H1.42275H1.41057H1.39844H1.38636H1.37432H1.36233H1.35038H1.33848H1.32662H1.31481H1.30304H1.29132H1.27964H1.26802H1.25643H1.2449H1.23341H1.22196H1.21057H1.19922H1.18791H1.17665H1.16544H1.15428H1.14316H1.13209H1.12107H1.1101H1.09917H1.08829H1.07746H1.06667H1.05594H1.04525Z" fill="#EEF8F7" stroke="#004D40" stroke-width="2"/>
<circle cx="29.5" cy="9.5" r="2.5" fill="#EEF8F7" stroke="#004D40" stroke-width="2"/>
<path d="M24.0453 23H24.039C24.1748 21.2637 24.6637 19.6161 25.4673 18.362C26.4063 16.8967 27.7417 16 29.5 16C31.2583 16 32.5937 16.8967 33.5327 18.362C34.3363 19.6161 34.8252 21.2637 34.961 23H34.9547H34.9441H34.9333H34.9225H34.9117H34.9008H34.8899H34.8789H34.8679H34.8568H34.8457H34.8346H34.8233H34.8121H34.8008H34.7894H34.778H34.7666H34.7551H34.7436H34.732H34.7204H34.7087H34.697H34.6852H34.6734H34.6615H34.6496H34.6377H34.6257H34.6136H34.6016H34.5894H34.5773H34.565H34.5528H34.5405H34.5281H34.5157H34.5033H34.4908H34.4783H34.4657H34.4531H34.4404H34.4277H34.415H34.4022H34.3893H34.3765H34.3635H34.3506H34.3376H34.3245H34.3114H34.2983H34.2851H34.2719H34.2586H34.2453H34.232H34.2186H34.2051H34.1917H34.1782H34.1646H34.151H34.1374H34.1237H34.11H34.0962H34.0824H34.0685H34.0547H34.0407H34.0268H34.0128H33.9987H33.9846H33.9705H33.9563H33.9421H33.9279H33.9136H33.8992H33.8849H33.8705H33.856H33.8415H33.827H33.8124H33.7978H33.7832H33.7685H33.7538H33.739H33.7242H33.7094H33.6945H33.6796H33.6646H33.6496H33.6346H33.6195H33.6044H33.5893H33.5741H33.5589H33.5436H33.5283H33.513H33.4976H33.4822H33.4668H33.4513H33.4358H33.4203H33.4047H33.3891H33.3734H33.3577H33.342H33.3262H33.3104H33.2946H33.2787H33.2628H33.2468H33.2308H33.2148H33.1988H33.1827H33.1666H33.1504H33.1342H33.118H33.1017H33.0854H33.0691H33.0527H33.0363H33.0199H33.0034H32.9869H32.9704H32.9538H32.9372H32.9206H32.9039H32.8872H32.8705H32.8537H32.8369H32.8201H32.8032H32.7863H32.7694H32.7524H32.7354H32.7184H32.7013H32.6842H32.6671H32.6499H32.6328H32.6155H32.5983H32.581H32.5637H32.5463H32.529H32.5115H32.4941H32.4766H32.4591H32.4416H32.424H32.4064H32.3888H32.3712H32.3535H32.3358H32.318H32.3002H32.2824H32.2646H32.2467H32.2288H32.2109H32.193H32.175H32.157H32.1389H32.1209H32.1028H32.0846H32.0665H32.0483H32.0301H32.0119H31.9936H31.9753H31.957H31.9386H31.9202H31.9018H31.8834H31.8649H31.8464H31.8279H31.8094H31.7908H31.7722H31.7536H31.7349H31.7162H31.6975H31.6788H31.66H31.6413H31.6224H31.6036H31.5847H31.5658H31.5469H31.528H31.509H31.49H31.471H31.452H31.4329H31.4138H31.3947H31.3755H31.3564H31.3372H31.318H31.2987H31.2795H31.2602H31.2408H31.2215H31.2021H31.1828H31.1633H31.1439H31.1244H31.105H31.0855H31.0659H31.0464H31.0268H31.0072H30.9876H30.9679H30.9483H30.9286H30.9089H30.8891H30.8694H30.8496H30.8298H30.81H30.7901H30.7703H30.7504H30.7305H30.7105H30.6906H30.6706H30.6506H30.6306H30.6106H30.5905H30.5704H30.5503H30.5302H30.51H30.4899H30.4697H30.4495H30.4293H30.409H30.3888H30.3685H30.3482H30.3279H30.3075H30.2872H30.2668H30.2464H30.226H30.2055H30.1851H30.1646H30.1441H30.1236H30.103H30.0825H30.0619H30.0413H30.0207H30.0001H29.9795H29.9588H29.9381H29.9174H29.8967H29.876H29.8553H29.8345H29.8137H29.7929H29.7721H29.7513H29.7304H29.7095H29.6887H29.6678H29.6469H29.6259H29.605H29.584H29.563H29.542H29.521H29.5H29.479H29.458H29.437H29.416H29.395H29.3741H29.3531H29.3322H29.3113H29.2905H29.2696H29.2487H29.2279H29.2071H29.1863H29.1655H29.1447H29.124H29.1033H29.0826H29.0619H29.0412H29.0205H28.9999H28.9793H28.9587H28.9381H28.9175H28.897H28.8764H28.8559H28.8354H28.8149H28.7945H28.774H28.7536H28.7332H28.7128H28.6925H28.6721H28.6518H28.6315H28.6112H28.591H28.5707H28.5505H28.5303H28.5101H28.49H28.4698H28.4497H28.4296H28.4095H28.3894H28.3694H28.3494H28.3294H28.3094H28.2895H28.2695H28.2496H28.2297H28.2099H28.19H28.1702H28.1504H28.1306H28.1109H28.0911H28.0714H28.0517H28.0321H28.0124H27.9928H27.9732H27.9536H27.9341H27.9145H27.895H27.8755H27.8561H27.8367H27.8172H27.7979H27.7785H27.7592H27.7398H27.7205H27.7013H27.682H27.6628H27.6436H27.6245H27.6053H27.5862H27.5671H27.548H27.529H27.51H27.491H27.472H27.4531H27.4341H27.4153H27.3964H27.3776H27.3587H27.34H27.3212H27.3025H27.2838H27.2651H27.2464H27.2278H27.2092H27.1906H27.1721H27.1536H27.1351H27.1166H27.0982H27.0798H27.0614H27.043H27.0247H27.0064H26.9881H26.9699H26.9517H26.9335H26.9154H26.8972H26.8791H26.8611H26.843H26.825H26.807H26.7891H26.7712H26.7533H26.7354H26.7176H26.6998H26.682H26.6642H26.6465H26.6288H26.6112H26.5936H26.576H26.5584H26.5409H26.5234H26.5059H26.4884H26.471H26.4537H26.4363H26.419H26.4017H26.3845H26.3672H26.35H26.3329H26.3158H26.2987H26.2816H26.2646H26.2476H26.2306H26.2137H26.1968H26.1799H26.1631H26.1463H26.1295H26.1128H26.0961H26.0794H26.0628H26.0462H26.0296H26.0131H25.9966H25.9801H25.9637H25.9473H25.9309H25.9146H25.8983H25.882H25.8658H25.8496H25.8334H25.8173H25.8012H25.7852H25.7692H25.7532H25.7372H25.7213H25.7054H25.6896H25.6738H25.658H25.6423H25.6266H25.6109H25.5953H25.5797H25.5642H25.5487H25.5332H25.5178H25.5024H25.487H25.4717H25.4564H25.4411H25.4259H25.4107H25.3956H25.3805H25.3654H25.3504H25.3354H25.3204H25.3055H25.2906H25.2758H25.261H25.2462H25.2315H25.2168H25.2022H25.1876H25.173H25.1585H25.144H25.1295H25.1151H25.1008H25.0864H25.0721H25.0579H25.0437H25.0295H25.0154H25.0013H24.9872H24.9732H24.9593H24.9453H24.9315H24.9176H24.9038H24.89H24.8763H24.8626H24.849H24.8354H24.8218H24.8083H24.7949H24.7814H24.768H24.7547H24.7414H24.7281H24.7149H24.7017H24.6886H24.6755H24.6624H24.6494H24.6365H24.6235H24.6107H24.5978H24.585H24.5723H24.5596H24.5469H24.5343H24.5217H24.5092H24.4967H24.4843H24.4719H24.4595H24.4472H24.435H24.4227H24.4106H24.3984H24.3864H24.3743H24.3623H24.3504H24.3385H24.3266H24.3148H24.303H24.2913H24.2796H24.268H24.2564H24.2449H24.2334H24.222H24.2106H24.1992H24.1879H24.1767H24.1654H24.1543H24.1432H24.1321H24.1211H24.1101H24.0992H24.0883H24.0775H24.0667H24.0559H24.0453Z" fill="#EEF8F7" stroke="#004D40" stroke-width="2"/>
<circle cx="17.9996" cy="5" r="4" fill="#EEF8F7" stroke="#004D40" stroke-width="2"/>
<path d="M10.0412 23H10.0347C10.1747 20.9451 10.7448 18.6067 11.863 16.7106C13.1465 14.5344 15.1021 13 17.9852 13C20.869 13 22.8325 14.5353 24.1233 16.7126C25.2475 18.6088 25.8232 20.9466 25.9648 23H25.9561H25.9436H25.931H25.9183H25.9055H25.8927H25.8799H25.8669H25.8539H25.8409H25.8277H25.8145H25.8013H25.7879H25.7745H25.7611H25.7475H25.734H25.7203H25.7066H25.6928H25.6789H25.665H25.6511H25.637H25.6229H25.6088H25.5945H25.5802H25.5659H25.5515H25.537H25.5225H25.5079H25.4932H25.4785H25.4637H25.4488H25.4339H25.4189H25.4039H25.3888H25.3737H25.3584H25.3432H25.3278H25.3124H25.297H25.2815H25.2659H25.2503H25.2346H25.2188H25.203H25.1871H25.1712H25.1552H25.1391H25.123H25.1069H25.0906H25.0744H25.058H25.0416H25.0252H25.0087H24.9921H24.9755H24.9588H24.942H24.9252H24.9084H24.8915H24.8745H24.8575H24.8404H24.8233H24.8061H24.7888H24.7715H24.7542H24.7368H24.7193H24.7018H24.6842H24.6666H24.6489H24.6312H24.6134H24.5955H24.5776H24.5597H24.5417H24.5236H24.5055H24.4873H24.4691H24.4508H24.4325H24.4141H24.3957H24.3772H24.3587H24.3401H24.3215H24.3028H24.284H24.2652H24.2464H24.2275H24.2086H24.1896H24.1705H24.1514H24.1323H24.1131H24.0939H24.0746H24.0552H24.0358H24.0164H23.9969H23.9774H23.9578H23.9381H23.9184H23.8987H23.8789H23.8591H23.8392H23.8193H23.7993H23.7793H23.7592H23.7391H23.7189H23.6987H23.6785H23.6582H23.6378H23.6174H23.597H23.5765H23.556H23.5354H23.5148H23.4941H23.4734H23.4526H23.4318H23.411H23.3901H23.3691H23.3481H23.3271H23.306H23.2849H23.2638H23.2425H23.2213H23.2H23.1787H23.1573H23.1359H23.1144H23.0929H23.0714H23.0498H23.0281H23.0065H22.9847H22.963H22.9412H22.9193H22.8975H22.8755H22.8536H22.8316H22.8095H22.7874H22.7653H22.7431H22.7209H22.6987H22.6764H22.6541H22.6317H22.6093H22.5869H22.5644H22.5419H22.5193H22.4967H22.4741H22.4514H22.4287H22.4059H22.3831H22.3603H22.3374H22.3145H22.2916H22.2686H22.2456H22.2225H22.1995H22.1763H22.1532H22.13H22.1067H22.0835H22.0602H22.0368H22.0135H21.99H21.9666H21.9431H21.9196H21.896H21.8725H21.8488H21.8252H21.8015H21.7778H21.754H21.7302H21.7064H21.6825H21.6587H21.6347H21.6108H21.5868H21.5628H21.5387H21.5146H21.4905H21.4663H21.4422H21.418H21.3937H21.3694H21.3451H21.3208H21.2964H21.272H21.2476H21.2231H21.1986H21.1741H21.1495H21.1249H21.1003H21.0757H21.051H21.0263H21.0016H20.9768H20.952H20.9272H20.9024H20.8775H20.8526H20.8276H20.8027H20.7777H20.7527H20.7276H20.7026H20.6775H20.6523H20.6272H20.602H20.5768H20.5515H20.5263H20.501H20.4757H20.4503H20.425H20.3996H20.3742H20.3487H20.3233H20.2978H20.2723H20.2467H20.2211H20.1956H20.1699H20.1443H20.1186H20.0929H20.0672H20.0415H20.0157H19.99H19.9642H19.9383H19.9125H19.8866H19.8607H19.8348H19.8088H19.7829H19.7569H19.7309H19.7049H19.6788H19.6527H19.6266H19.6005H19.5744H19.5482H19.5221H19.4959H19.4696H19.4434H19.4171H19.3909H19.3646H19.3383H19.3119H19.2856H19.2592H19.2328H19.2064H19.1799H19.1535H19.127H19.1005H19.074H19.0475H19.021H18.9944H18.9678H18.9412H18.9146H18.888H18.8613H18.8347H18.808H18.7813H18.7546H18.7279H18.7011H18.6744H18.6476H18.6208H18.594H18.5672H18.5403H18.5135H18.4866H18.4597H18.4328H18.4059H18.379H18.3521H18.3252H18.2983H18.2713H18.2444H18.2175H18.1905H18.1636H18.1366H18.1097H18.0827H18.0558H18.0288H18.0019H17.9749H17.9479H17.9209H17.894H17.867H17.84H17.813H17.7861H17.7591H17.7321H17.7051H17.6781H17.6512H17.6242H17.5972H17.5702H17.5433H17.5163H17.4893H17.4623H17.4354H17.4084H17.3814H17.3545H17.3275H17.3006H17.2736H17.2467H17.2197H17.1928H17.1658H17.1389H17.112H17.0851H17.0581H17.0312H17.0043H16.9774H16.9505H16.9236H16.8968H16.8699H16.843H16.8162H16.7893H16.7625H16.7356H16.7088H16.682H16.6552H16.6284H16.6016H16.5748H16.548H16.5213H16.4945H16.4678H16.4411H16.4143H16.3876H16.3609H16.3342H16.3076H16.2809H16.2543H16.2276H16.201H16.1744H16.1478H16.1212H16.0946H16.0681H16.0415H16.015H15.9885H15.962H15.9355H15.909H15.8826H15.8561H15.8297H15.8033H15.7769H15.7505H15.7242H15.6978H15.6715H15.6452H15.6189H15.5927H15.5664H15.5402H15.514H15.4878H15.4616H15.4354H15.4093H15.3832H15.3571H15.331H15.3049H15.2789H15.2529H15.2269H15.2009H15.175H15.1491H15.1231H15.0973H15.0714H15.0456H15.0197H14.994H14.9682H14.9424H14.9167H14.891H14.8653H14.8397H14.8141H14.7885H14.7629H14.7374H14.7118H14.6863H14.6609H14.6354H14.61H14.5846H14.5593H14.5339H14.5086H14.4833H14.4581H14.4329H14.4077H14.3825H14.3574H14.3323H14.3072H14.2821H14.2571H14.2321H14.2072H14.1823H14.1574H14.1325H14.1077H14.0829H14.0581H14.0334H14.0086H13.984H13.9593H13.9347H13.9102H13.8856H13.8611H13.8366H13.8122H13.7878H13.7634H13.7391H13.7148H13.6905H13.6663H13.6421H13.6179H13.5938H13.5697H13.5457H13.5217H13.4977H13.4738H13.4499H13.426H13.4022H13.3784H13.3546H13.3309H13.3073H13.2836H13.26H13.2365H13.213H13.1895H13.1661H13.1427H13.1193H13.096H13.0728H13.0495H13.0263H13.0032H12.9801H12.957H12.934H12.911H12.8881H12.8652H12.8424H12.8196H12.7968H12.7741H12.7515H12.7288H12.7063H12.6837H12.6612H12.6388H12.6164H12.5941H12.5718H12.5495H12.5273H12.5051H12.483H12.4609H12.4389H12.417H12.395H12.3732H12.3513H12.3296H12.3078H12.2861H12.2645H12.2429H12.2214H12.1999H12.1785H12.1571H12.1358H12.1145H12.0933H12.0721H12.051H12.0299H12.0089H11.9879H11.967H11.9462H11.9254H11.9046H11.8839H11.8633H11.8427H11.8221H11.8016H11.7812H11.7608H11.7405H11.7203H11.7001H11.6799H11.6598H11.6398H11.6198H11.5999H11.58H11.5602H11.5405H11.5208H11.5011H11.4815H11.462H11.4426H11.4232H11.4038H11.3845H11.3653H11.3462H11.3271H11.308H11.289H11.2701H11.2512H11.2324H11.2137H11.195H11.1764H11.1579H11.1394H11.121H11.1026H11.0843H11.0661H11.0479H11.0298H11.0117H10.9937H10.9758H10.958H10.9402H10.9225H10.9048H10.8872H10.8697H10.8522H10.8348H10.8175H10.8003H10.7831H10.7659H10.7489H10.7319H10.715H10.6981H10.6813H10.6646H10.648H10.6314H10.6149H10.5984H10.5821H10.5658H10.5495H10.5334H10.5173H10.5013H10.4853H10.4695H10.4537H10.4379H10.4223H10.4067H10.3912H10.3757H10.3603H10.3451H10.3298H10.3147H10.2996H10.2846H10.2697H10.2548H10.2401H10.2254H10.2107H10.1962H10.1817H10.1673H10.153H10.1387H10.1246H10.1105H10.0965H10.0825H10.0687H10.0549H10.0412Z" fill="#EEF8F7" stroke="#004D40" stroke-width="2"/>
</svg>
