<svg width="20" height="33" viewBox="0 0 20 33" fill="none" xmlns="http://www.w3.org/2000/svg">
<path d="M1 16H19V31C19 31.5523 18.5523 32 18 32H2C1.44772 32 1 31.5523 1 31V16Z" fill="#EEF8F7" stroke="#004D40" stroke-width="2"/>
<rect x="4" y="2" width="5" height="14" fill="#EEF8F7" stroke="#004D40" stroke-width="2"/>
<path d="M12 16V6.53976L14 2.33024L16 6.53976V16H12Z" fill="#EEF8F7" stroke="#004D40" stroke-width="2"/>
<rect x="2" y="20.1941" width="16" height="1.97015" fill="#004D40"/>
<rect x="7" y="5.41797" width="1" height="1.97015" fill="#004D40"/>
<rect x="7" y="5.41797" width="1" height="1.97015" fill="#004D40"/>
<rect x="7" y="9.35815" width="1" height="1.97015" fill="#004D40"/>
<rect x="7" y="9.35815" width="1" height="1.97015" fill="#004D40"/>
<rect x="7" y="13.2986" width="1" height="1.97015" fill="#004D40"/>
<rect x="7" y="13.2986" width="1" height="1.97015" fill="#004D40"/>
</svg>
