<svg width="26" height="32" viewBox="0 0 26 32" fill="none" xmlns="http://www.w3.org/2000/svg">
<rect x="1" y="1" width="24" height="30" fill="#EEF8F7" stroke="#004D40" stroke-width="2"/>
<rect x="5" y="21" width="16" height="2" fill="#004D40"/>
<rect x="5" y="21" width="16" height="2" fill="#004D40"/>
<rect x="5" y="21" width="16" height="2" fill="#004D40"/>
<rect x="5" y="17" width="16" height="2" fill="#004D40"/>
<rect x="5" y="17" width="16" height="2" fill="#004D40"/>
<rect x="5" y="17" width="16" height="2" fill="#004D40"/>
<rect x="5" y="25" width="8" height="2" fill="#004D40"/>
<rect x="5" y="25" width="8" height="2" fill="#004D40"/>
<rect x="5" y="25" width="8" height="2" fill="#004D40"/>
<path d="M13 5C11.6188 5 10.5 6.11875 10.5 7.5C10.5 8.88125 11.6188 10 13 10C14.3812 10 15.5 8.88125 15.5 7.5C15.5 6.11875 14.3812 5 13 5ZM13 11C10.5 11 8 13 8 14H18C18 13 15.5 11 13 11Z" fill="#004D40"/>
</svg>
