<svg width="198" height="26" viewBox="0 0 198 26" fill="none" xmlns="http://www.w3.org/2000/svg">
<path fill-rule="evenodd" clip-rule="evenodd" d="M120.731 5.32366H114.291V22.806C114.291 24.2528 113.211 25.4284 111.878 25.4284C110.544 25.4284 109.462 24.2528 109.462 22.806V5.32366H103.022C101.69 5.32366 100.609 4.14963 100.609 2.70131C100.609 1.25299 101.69 0.0789591 103.023 0.0789591H120.731C122.063 0.0789591 123.145 1.25299 123.145 2.70131C123.145 4.14963 122.064 5.32366 120.731 5.32366ZM96.5852 5.32366H90.145V22.806C90.145 24.2528 89.0648 25.4284 87.7309 25.4284C86.3978 25.4284 85.3162 24.2528 85.3162 22.806V5.32366H78.878C77.5441 5.32366 76.4639 4.14963 76.4639 2.70131C76.4639 1.25299 77.5441 0.0789591 78.878 0.0789591H96.5852C97.9191 0.0789591 99 1.25299 99 2.70131C99 4.14963 97.9191 5.32366 96.586 5.32366H96.5852ZM71.9135 25.4095C71.8853 25.4133 71.8571 25.4156 71.8289 25.4171C70.9383 25.5045 69.9017 25.0652 69.0992 24.1586L55.5351 8.8661V22.8068C55.5351 24.2536 54.4549 25.4291 53.1218 25.4291C51.7879 25.4291 50.707 24.2536 50.707 22.8068V2.70131C50.707 1.59359 51.3412 0.647136 52.2361 0.262825C52.253 0.25529 52.2713 0.247754 52.2875 0.242479C52.3474 0.219873 52.4073 0.197266 52.4707 0.178428C52.4806 0.17466 52.4918 0.172399 52.5031 0.168632C52.7004 0.111362 52.9076 0.0797126 53.1232 0.0797126C53.4346 0.0797126 53.7334 0.145271 54.0075 0.263579C54.5641 0.461762 55.1166 0.831755 55.5894 1.36527L69.219 16.7354V2.70131C69.219 1.25299 70.3006 0.0789591 71.6344 0.0789591C72.9676 0.0789591 74.0485 1.25299 74.0485 2.70131V22.806C74.0485 24.1127 73.1663 25.1933 72.0142 25.393L71.9128 25.4095H71.9135ZM43.7518 23.7976L42.1312 20.1851H32.1917C31.8775 20.1851 31.5787 20.1173 31.3018 19.9982L29.5783 23.7494C28.9272 25.1638 27.4327 25.787 26.2405 25.1397C25.0475 24.4916 24.6071 22.821 25.2575 21.4058L34.2845 1.76758C34.7037 0.859548 35.4704 0.279314 36.2814 0.151211C37.363 -0.168294 38.5742 0.463181 39.138 1.72085L47.9881 21.4458C48.6243 22.8655 48.1938 24.5444 47.0227 25.1939C45.8545 25.8435 44.3902 25.2188 43.7518 23.7984V23.7976ZM36.7419 8.169L33.6289 14.9396H39.7789L36.7419 8.169ZM20.1206 25.4284H2.41405C1.0809 25.4284 3.44309e-07 24.2528 3.44309e-07 22.806V2.70131C-0.000704282 1.25224 1.08019 0.0789591 2.41335 0.0789591H20.1206C21.4552 0.0789591 22.5354 1.25299 22.5354 2.70131C22.5354 4.14963 21.4552 5.32366 20.1213 5.32366H4.8288V20.1837H17.7066V15.8131H12.8778C11.5439 15.8131 10.4623 14.6398 10.4623 13.1907C10.4623 11.7424 11.5432 10.5684 12.877 10.5684H20.1206C21.4545 10.5684 22.5347 11.7424 22.5347 13.1907V22.806C22.5347 24.2528 21.4545 25.4284 20.1206 25.4284Z" fill="white"/>
<path fill-rule="evenodd" clip-rule="evenodd" d="M195.584 25.4285H177.876C176.542 25.4285 175.462 24.253 175.462 22.8062V2.70145C175.462 1.25313 176.542 0.0791016 177.876 0.0791016H195.583C196.917 0.0791016 197.998 1.25313 197.998 2.70145V22.8062C197.998 24.253 196.917 25.4285 195.584 25.4285ZM180.289 5.32443V20.1844H193.167V5.32519H180.289V5.32443ZM170.631 15.8132H167.591L171.574 20.5229C172.798 21.9019 173.011 23.8348 172.051 24.8408C171.089 25.8445 169.319 25.54 168.095 24.1595L161.036 15.8125H155.337V22.8054C155.337 24.2522 154.255 25.4278 152.922 25.4278C151.588 25.4278 150.508 24.2522 150.508 22.8054V2.70146C150.508 1.25314 151.588 0.079112 152.922 0.079112H170.629C171.963 0.079112 173.044 1.25314 173.044 2.70146V13.1909C173.044 14.64 171.962 15.8132 170.629 15.8132H170.631ZM168.217 5.32443H155.34V10.5691H168.217V5.32443ZM145.681 15.8132H130.389V22.8062C130.389 24.253 129.307 25.4285 127.973 25.4285C126.64 25.4285 125.559 24.253 125.559 22.8062V2.70145C125.559 1.25313 126.64 0.0791016 127.973 0.0791016H145.681C147.014 0.0791016 148.096 1.25313 148.096 2.70145V13.1909C148.096 14.6399 147.014 15.8132 145.681 15.8132ZM143.268 5.32443H130.391V10.5691H143.268V5.32443Z" fill="white"/>
</svg>
