<svg width="30" height="31" viewBox="0 0 30 31" fill="none" xmlns="http://www.w3.org/2000/svg">
<path d="M1 28V2H13L15 3.5L17 2H29V28H1Z" fill="#EEF8F7" stroke="black"/>
<path d="M7 18H9V20H7V18Z" fill="#004D40"/>
<path d="M21 18H23V20H21V18Z" fill="#004D40"/>
<path d="M18 10H26V12H18V10Z" fill="#004D40"/>
<path d="M18 14H26V16H18V14Z" fill="#004D40"/>
<path d="M18 6H26V8H18V6Z" fill="#004D40"/>
<path d="M4 14H12V6H4V14ZM6 8H10V12H6V8Z" fill="#004D40"/>
<path d="M17.9966 1C16.7962 1 15.722 1.5577 15.0129 2.43069C14.3038 1.5577 13.2296 1 12.0292 1H0V28.9936H24V31H26V28.9936H30V1H17.9966ZM17.9966 3H28V23H18.5C17.5 23 16 24 16 24.5V5C16 5.08586 16 5.08586 16 5C16 4 17 3 17.9966 3ZM2 3H12.0292C13.1827 3 13.9881 3.83403 14 5C14 5.08586 14 5.08586 14 5V24.5C14 24 12.5 23 11.5 23H2V3ZM1.97082 25H11C12.5 25 14 26 14 27H2L1.97082 25ZM16 27C16 26 17.5 25 19 25H24.0035L24 27H16ZM28 27H26V25H28V27Z" fill="#004D40"/>
</svg>
