<svg width="39" height="27" viewBox="0 0 39 27" fill="none" xmlns="http://www.w3.org/2000/svg">
<path d="M8.65561 27C6.26786 27 4.21173 26.2021 2.48725 24.6064C0.829082 22.9468 0 20.9681 0 18.6702C0 17.5213 0.198979 16.5 0.596939 15.6064C0.994898 14.6489 1.625 13.5638 2.48725 12.3511L11.1429 0L17.0128 3.73405L11.9388 11.2021C13.4643 11.7766 14.7245 12.734 15.7194 14.0745C16.7143 15.3511 17.2117 16.883 17.2117 18.6702C17.2117 20.9681 16.3827 22.9468 14.7245 24.6064C13.0663 26.2021 11.0434 27 8.65561 27ZM30.4439 27C28.0561 27 26 26.2021 24.2755 24.6064C22.6173 22.9468 21.7883 20.9681 21.7883 18.6702C21.7883 17.5213 21.9872 16.5 22.3852 15.6064C22.7832 14.6489 23.4133 13.5638 24.2755 12.3511L32.9311 0L38.801 3.73405L33.727 11.2021C35.2526 11.7766 36.5128 12.734 37.5076 14.0745C38.5025 15.3511 39 16.883 39 18.6702C39 20.9681 38.1709 22.9468 36.5128 24.6064C34.8546 26.2021 32.8316 27 30.4439 27Z" fill="#FF9900" fill-opacity="0.8"/>
</svg>
