<svg width="30" height="30" viewBox="0 0 30 30" fill="none" xmlns="http://www.w3.org/2000/svg">
<rect x="1" y="1" width="28" height="28" rx="14" fill="#EEF8F7" stroke="#004D40" stroke-width="2"/>
<rect x="15" y="28" width="15" height="2" fill="#004D40"/>
<rect x="14" y="14" width="2" height="2" rx="1" fill="#004D40"/>
<rect x="12" y="5" width="6" height="6" rx="3" stroke="#004D40" stroke-width="2"/>
<rect x="12" y="5" width="6" height="6" rx="3" stroke="#004D40" stroke-width="2"/>
<rect x="12" y="5" width="6" height="6" rx="3" stroke="#004D40" stroke-width="2"/>
<rect x="12" y="19" width="6" height="6" rx="3" stroke="#004D40" stroke-width="2"/>
<rect x="12" y="19" width="6" height="6" rx="3" stroke="#004D40" stroke-width="2"/>
<rect x="12" y="19" width="6" height="6" rx="3" stroke="#004D40" stroke-width="2"/>
<rect x="19" y="12" width="6" height="6" rx="3" stroke="#004D40" stroke-width="2"/>
<rect x="19" y="12" width="6" height="6" rx="3" stroke="#004D40" stroke-width="2"/>
<rect x="19" y="12" width="6" height="6" rx="3" stroke="#004D40" stroke-width="2"/>
<rect x="5" y="12" width="6" height="6" rx="3" stroke="#004D40" stroke-width="2"/>
<rect x="5" y="12" width="6" height="6" rx="3" stroke="#004D40" stroke-width="2"/>
<rect x="5" y="12" width="6" height="6" rx="3" stroke="#004D40" stroke-width="2"/>
</svg>
